# xmcd
#
# Track frame offsets: 
#        150
#        18275
#        36990
#        53852
#        86047
#        110827
#        132620
#        168575
#        185392
#        223395
#        255142
#        277010
#        302480
#
# Disc length: 4192 seconds
#
# Revision: 6
# Processed by: cddbd v1.5.2PL0 Copyright (c) Steve Scherf et al.
# Submitted via: ExactAudioCopy v0.99pb3
#
DISCID=bf105e0d
DTITLE=Alien Sex Fiend - Drive My Rocket: The Collection Part 1
DYEAR=1992
DGENRE=Gothic Rock
TTITLE0=Nightmare Zone
TTITLE1=Drive My Rocket
TTITLE2=Hurricane Fighter Plane
TTITLE3=Isolation
TTITLE4=Stressed Out (Brain Drain mix)
TTITLE5=Back to the Egg
TTITLE6=Now I'm Feeling Zombiefied
TTITLE7=Get Into It
TTITLE8=Attack
TTITLE9=Crazier Still
TTITLE10=I Walk the Line
TTITLE11=Depravity Lane
TTITLE12=Sample My Sausage
EXTD=
EXTT0=
EXTT1=
EXTT2=
EXTT3=
EXTT4=
EXTT5=
EXTT6=
EXTT7=
EXTT8=
EXTT9=
EXTT10=
EXTT11=
EXTT12=
PLAYORDER=
